<svg width="1024" height="1024" viewBox="0 0 1024 1024" fill="none" xmlns="http://www.w3.org/2000/svg">
  <defs>
    <linearGradient id="bg" x1="126" y1="128" x2="898" y2="900" gradientUnits="userSpaceOnUse">
      <stop offset="0" stop-color="#0B5BD3"/>
      <stop offset="0.5" stop-color="#0A7BC2"/>
      <stop offset="1" stop-color="#0EAD7A"/>
    </linearGradient>
    <radialGradient id="sheen" cx="0" cy="0" r="1" gradientUnits="userSpaceOnUse" gradientTransform="translate(276 216) rotate(47) scale(470 470)">
      <stop stop-color="#B3E5FF" stop-opacity="0.4"/>
      <stop offset="1" stop-color="#B3E5FF" stop-opacity="0"/>
    </radialGradient>
    <filter id="cardShadow" x="220" y="220" width="612" height="612" filterUnits="userSpaceOnUse">
      <feDropShadow dx="0" dy="16" stdDeviation="18" flood-color="#052f58" flood-opacity="0.22"/>
    </filter>
    <linearGradient id="bolt" x1="454" y1="336" x2="674" y2="692" gradientUnits="userSpaceOnUse">
      <stop stop-color="#FFE47C"/>
      <stop offset="1" stop-color="#FF9A2F"/>
    </linearGradient>
  </defs>

  <rect x="64" y="64" width="896" height="896" rx="232" fill="url(#bg)"/>
  <rect x="64" y="64" width="896" height="896" rx="232" fill="url(#sheen)"/>

  <g filter="url(#cardShadow)">
    <rect x="228" y="238" width="568" height="430" rx="176" fill="#FFFFFF"/>
    <path d="M378 644L302 798L486 680L378 644Z" fill="#FFFFFF"/>
  </g>

  <path d="M568 336L454 522H548L478 692L674 454H574L638 336H568Z" fill="url(#bolt)"/>

  <circle cx="704" cy="694" r="90" fill="#E6F4FF"/>
  <path d="M662 694L694 726L746 664" stroke="#0B5BD3" stroke-width="26" stroke-linecap="round" stroke-linejoin="round"/>
</svg>
